<svg xmlns="http://www.w3.org/2000/svg" viewBox="0 0 512 512">
  <rect width="512" height="512" rx="112" fill="#09090b" />
  <path d="M157.0,56.0 L141.4,56.7 L123.5,60.4 L112.8,64.0 L97.3,73.1 L85.0,84.7 L79.3,93.0 L73.0,106.2 L65.8,133.6 L66.2,150.2 L71.0,156.8 L75.8,159.7 L87.7,160.2 L95.3,155.1 L99.2,148.0 L103.4,124.1 L109.0,110.9 L113.2,105.0 L119.8,99.0 L134.3,92.4 L153.2,89.4 L266.8,89.5 L288.3,92.0 L302.6,95.2 L322.9,102.0 L340.8,110.8 L357.5,122.3 L375.5,139.8 L385.0,152.3 L396.6,173.0 L402.4,187.4 L408.1,206.5 L413.1,242.3 L412.8,270.9 L407.7,303.8 L402.4,322.3 L392.6,345.0 L375.5,371.5 L365.0,383.2 L349.2,397.3 L336.1,406.4 L320.9,414.2 L314.6,420.3 L312.5,428.5 L314.6,436.5 L319.3,442.1 L324.1,444.8 L328.9,445.4 L334.9,444.7 L342.0,441.9 L362.3,429.9 L376.9,419.0 L395.4,401.1 L409.0,384.4 L423.8,360.5 L437.4,327.1 L445.3,292.4 L447.9,266.2 L447.9,245.9 L443.1,204.1 L437.5,182.8 L428.3,158.7 L411.3,129.8 L401.0,116.9 L388.1,103.8 L375.5,92.8 L364.7,85.5 L349.2,76.8 L326.5,67.2 L296.7,59.4 L269.2,56.2 L158.2,56.0 Z M171.3,161.0 L164.1,163.3 L157.8,170.6 L120.4,268.5 L116.4,276.3 L110.4,280.9 L106.8,281.2 L102.0,277.7 L98.7,266.2 L98.4,207.7 L96.8,199.3 L91.3,193.0 L86.5,190.5 L81.7,189.7 L72.2,192.5 L65.8,199.3 L64.1,212.4 L64.1,354.5 L66.0,377.2 L70.8,398.7 L79.3,418.7 L90.1,432.3 L102.0,441.6 L122.3,450.1 L155.8,455.8 L260.1,456.0 L264.4,455.1 L268.8,452.4 L274.6,445.3 L275.6,439.3 L274.8,433.3 L270.4,426.0 L259.6,421.2 L216.7,420.8 L208.3,419.4 L202.3,416.9 L194.0,411.3 L190.2,405.9 L189.0,397.5 L190.7,390.3 L198.3,379.6 L207.5,372.4 L322.9,304.4 L326.8,300.8 L329.1,296.0 L329.9,286.5 L326.6,279.3 L321.7,275.2 L314.6,272.7 L307.4,273.6 L210.7,329.9 L203.5,332.9 L195.2,331.6 L192.8,327.1 L192.8,322.3 L198.3,311.5 L283.2,206.5 L286.1,200.5 L286.6,194.5 L283.9,186.2 L277.5,180.5 L269.2,178.4 L259.5,181.4 L172.2,287.6 L164.1,294.1 L157.0,294.8 L154.6,293.4 L152.7,288.8 L154.4,278.1 L190.4,181.4 L190.2,173.0 L186.8,166.9 L180.8,162.2 L172.5,160.8 Z" fill="#ffffff" fill-rule="evenodd" />
</svg>
